solid YASCADText
facet normal -1 0 0
  outer loop
    vertex -15 5 0
    vertex -15 5 10
    vertex -15 15 0
  endloop
endfacet
facet normal -1 0 0
  outer loop
    vertex -15 5 10
    vertex -15 15 10
    vertex -15 15 0
  endloop
endfacet
facet normal -1 0 0
  outer loop
    vertex -1 -1 0
    vertex -1 -1 20
    vertex -1 1 20
  endloop
endfacet
facet normal -1 0 0
  outer loop
    vertex -1 -1 0
    vertex -1 1 1
    vertex -1 1 0
  endloop
endfacet
facet normal -1 0 -0
  outer loop
    vertex -1 -1 0
    vertex -1 1 20
    vertex -1 1 1
  endloop
endfacet
facet normal -1 0 0
  outer loop
    vertex -1 1 0
    vertex -1 2 1
    vertex -1 2 0
  endloop
endfacet
facet normal -1 -0 0
  outer loop
    vertex -1 1 0
    vertex -1 1 1
    vertex -1 2 1
  endloop
endfacet
facet normal -0.8 -0.6 0
  outer loop
    vertex -5 -10 0
    vertex -2 -14 0
    vertex -2 -14 5
  endloop
endfacet
facet normal -0.8 -0.6 0
  outer loop
    vertex -5 -10 0
    vertex -2 -14 5
    vertex -5 -10 5
  endloop
endfacet
facet normal -0.79999995 -0.59999996 0
  outer loop
    vertex -12 -34 0.01
    vertex -12 -34 0
    vertex -6 -42 0
  endloop
endfacet
facet normal -0.79999995 -0.59999996 0
  outer loop
    vertex -6 -42 0
    vertex -6 -42 0.01
    vertex -12 -34 0.01
  endloop
endfacet
facet normal -0.6 0.8 0
  outer loop
    vertex -5 -10 0
    vertex -5 -10 5
    vertex -1 -7 0
  endloop
endfacet
facet normal -0.6 0.8 0
  outer loop
    vertex -1 -7 0
    vertex -5 -10 5
    vertex -1 -7 5
  endloop
endfacet
facet normal -0.59999996 0.79999995 0
  outer loop
    vertex -12 -34 0
    vertex -12 -34 0.01
    vertex -4 -28 0.01
  endloop
endfacet
facet normal -0.59999996 0.79999995 0
  outer loop
    vertex -12 -34 0
    vertex -4 -28 0.01
    vertex -4 -28 0
  endloop
endfacet
facet normal 0 -1 0
  outer loop
    vertex -15 5 0
    vertex -5 5 0
    vertex -5 5 10
  endloop
endfacet
facet normal 0 -1 0
  outer loop
    vertex -15 5 0
    vertex -5 5 10
    vertex -15 5 10
  endloop
endfacet
facet normal 0 -1 0
  outer loop
    vertex -1 -1 0
    vertex 1 -1 0
    vertex -1 -1 20
  endloop
endfacet
facet normal 0 -1 0
  outer loop
    vertex -1 -1 20
    vertex 1 -1 0
    vertex 1 -1 20
  endloop
endfacet
facet normal 0 0 -1
  outer loop
    vertex -15 5 0
    vertex -15 15 0
    vertex -5 15 0
  endloop
endfacet
facet normal 0 0 -1
  outer loop
    vertex -15 5 0
    vertex -5 15 0
    vertex -5 5 0
  endloop
endfacet
facet normal 0 0 -1
  outer loop
    vertex -6 -42 0
    vertex -12 -34 0
    vertex -4 -28 0
  endloop
endfacet
facet normal 0 0 -1
  outer loop
    vertex -6 -42 0
    vertex -4 -28 0
    vertex 2 -36 0
  endloop
endfacet
facet normal 0 0 -1
  outer loop
    vertex 2 -11 0
    vertex -5 -10 0
    vertex -1 -7 0
  endloop
endfacet
facet normal 0 0 -1
  outer loop
    vertex 2 -11 0
    vertex -2 -14 0
    vertex -5 -10 0
  endloop
endfacet
facet normal 0 0 -1
  outer loop
    vertex -1 -1 0
    vertex -1 1 0
    vertex 1 -1 0
  endloop
endfacet
facet normal 0 0 -1
  outer loop
    vertex -1 1 0
    vertex -1 2 0
    vertex 1 1 0
  endloop
endfacet
facet normal 0 0 -1
  outer loop
    vertex 1 1 0
    vertex -1 2 0
    vertex 1 2 0
  endloop
endfacet
facet normal 0 0 -1
  outer loop
    vertex -1 1 0
    vertex 1 1 0
    vertex 1 -1 0
  endloop
endfacet
facet normal 0 0 1
  outer loop
    vertex -15 5 10
    vertex -5 5 10
    vertex -5 15 10
  endloop
endfacet
facet normal 0 0 1
  outer loop
    vertex -15 5 10
    vertex -5 15 10
    vertex -15 15 10
  endloop
endfacet
facet normal -0 0 1
  outer loop
    vertex -6 -42 0.01
    vertex -4 -28 0.01
    vertex -12 -34 0.01
  endloop
endfacet
facet normal 0 0 1
  outer loop
    vertex -6 -42 0.01
    vertex 2 -36 0.01
    vertex -4 -28 0.01
  endloop
endfacet
facet normal -0 0 1
  outer loop
    vertex -1 -7 5
    vertex -5 -10 5
    vertex 2 -11 5
  endloop
endfacet
facet normal 0 -0 1
  outer loop
    vertex -5 -10 5
    vertex -2 -14 5
    vertex 2 -11 5
  endloop
endfacet
facet normal 0 0 1
  outer loop
    vertex -1 -1 20
    vertex 1 -1 20
    vertex -1 1 20
  endloop
endfacet
facet normal -0 0 1
  outer loop
    vertex -1 1 1
    vertex 1 2 1
    vertex -1 2 1
  endloop
endfacet
facet normal 0 -0 1
  outer loop
    vertex -1 1 20
    vertex 1 -1 20
    vertex 1 1 20
  endloop
endfacet
facet normal 0 0 1
  outer loop
    vertex -1 1 1
    vertex 1 1 1
    vertex 1 2 1
  endloop
endfacet
facet normal 0 1 0
  outer loop
    vertex -15 15 0
    vertex -15 15 10
    vertex -5 15 0
  endloop
endfacet
facet normal -0 1 0
  outer loop
    vertex -5 15 0
    vertex -15 15 10
    vertex -5 15 10
  endloop
endfacet
facet normal -0 1 0
  outer loop
    vertex -1 1 1
    vertex -1 1 20
    vertex 1 1 20
  endloop
endfacet
facet normal 0 1 0
  outer loop
    vertex -1 2 0
    vertex -1 2 1
    vertex 1 2 1
  endloop
endfacet
facet normal 0 1 0
  outer loop
    vertex -1 2 0
    vertex 1 2 1
    vertex 1 2 0
  endloop
endfacet
facet normal 0 1 0
  outer loop
    vertex -1 1 1
    vertex 1 1 20
    vertex 1 1 1
  endloop
endfacet
facet normal 0.59999996 -0.79999995 0
  outer loop
    vertex -6 -42 0
    vertex 2 -36 0
    vertex -6 -42 0.01
  endloop
endfacet
facet normal 0.59999996 -0.79999995 0
  outer loop
    vertex 2 -36 0
    vertex 2 -36 0.01
    vertex -6 -42 0.01
  endloop
endfacet
facet normal 0.6 -0.8 0
  outer loop
    vertex -2 -14 0
    vertex 2 -11 0
    vertex 2 -11 5
  endloop
endfacet
facet normal 0.6 -0.8 0
  outer loop
    vertex -2 -14 0
    vertex 2 -11 5
    vertex -2 -14 5
  endloop
endfacet
facet normal 0.79999995 0.59999996 -0
  outer loop
    vertex 2 -36 0.01
    vertex -4 -28 0
    vertex -4 -28 0.01
  endloop
endfacet
facet normal 0.79999995 0.59999996 0
  outer loop
    vertex 2 -36 0
    vertex -4 -28 0
    vertex 2 -36 0.01
  endloop
endfacet
facet normal 0.8 0.6 -0
  outer loop
    vertex 2 -11 0
    vertex -1 -7 0
    vertex -1 -7 5
  endloop
endfacet
facet normal 0.8 0.6 -0
  outer loop
    vertex 2 -11 5
    vertex 2 -11 0
    vertex -1 -7 5
  endloop
endfacet
facet normal 1 0 0
  outer loop
    vertex -5 5 0
    vertex -5 15 0
    vertex -5 15 10
  endloop
endfacet
facet normal 1 0 0
  outer loop
    vertex -5 5 0
    vertex -5 15 10
    vertex -5 5 10
  endloop
endfacet
facet normal 1 0 0
  outer loop
    vertex 1 -1 0
    vertex 1 1 0
    vertex 1 -1 20
  endloop
endfacet
facet normal 1 0 0
  outer loop
    vertex 1 1 0
    vertex 1 1 1
    vertex 1 -1 20
  endloop
endfacet
facet normal 1 0 -0
  outer loop
    vertex 1 -1 20
    vertex 1 1 1
    vertex 1 1 20
  endloop
endfacet
facet normal 1 0 0
  outer loop
    vertex 1 1 0
    vertex 1 2 0
    vertex 1 1 1
  endloop
endfacet
facet normal 1 0 -0
  outer loop
    vertex 1 1 1
    vertex 1 2 0
    vertex 1 2 1
  endloop
endfacet
endsolid YASCADText
