solid YASCADText
facet normal -1 0 0
  outer loop
    vertex 0 0 0
    vertex 0 0 10
    vertex 0 10 10
  endloop
endfacet
facet normal -1 0 -0
  outer loop
    vertex 0 0 0
    vertex 0 10 10
    vertex 0 10 0
  endloop
endfacet
facet normal -1 0 0
  outer loop
    vertex 20 0 0
    vertex 20 0 5
    vertex 20 4 5
  endloop
endfacet
facet normal -1 0 -0
  outer loop
    vertex 20 0 0
    vertex 20 4 5
    vertex 20 4 0
  endloop
endfacet
facet normal -1 0 0
  outer loop
    vertex 40 0 0
    vertex 40 0 0.01
    vertex 40 10 0.01
  endloop
endfacet
facet normal -1 0 -0
  outer loop
    vertex 40 0 0
    vertex 40 10 0.01
    vertex 40 10 0
  endloop
endfacet
facet normal -1 0 0
  outer loop
    vertex 60 0 0
    vertex 60 0 0.01
    vertex 60 10 0.01
  endloop
endfacet
facet normal -1 0 -0
  outer loop
    vertex 60 0 0
    vertex 60 10 0.01
    vertex 60 10 0
  endloop
endfacet
facet normal 0 -1 0
  outer loop
    vertex 0 0 0
    vertex 10 0 0
    vertex 0 0 10
  endloop
endfacet
facet normal -0 -1 -0
  outer loop
    vertex 10 0 0
    vertex 10 0 10
    vertex 0 0 10
  endloop
endfacet
facet normal 0 -1 0
  outer loop
    vertex 20 0 0
    vertex 30 0 0
    vertex 20 0 5
  endloop
endfacet
facet normal -0 -1 -0
  outer loop
    vertex 30 0 0
    vertex 30 0 5
    vertex 20 0 5
  endloop
endfacet
facet normal 0 -1 0
  outer loop
    vertex 40 0 0
    vertex 50 0 0
    vertex 40 0 0.01
  endloop
endfacet
facet normal -0 -1 -0
  outer loop
    vertex 50 0 0
    vertex 50 0 0.01
    vertex 40 0 0.01
  endloop
endfacet
facet normal 0 -1 0
  outer loop
    vertex 60 0 0
    vertex 65 0 0
    vertex 60 0 0.01
  endloop
endfacet
facet normal -0 -1 -0
  outer loop
    vertex 65 0 0
    vertex 65 0 0.01
    vertex 60 0 0.01
  endloop
endfacet
facet normal 0 0 -1
  outer loop
    vertex 0 0 0
    vertex 0 10 0
    vertex 10 0 0
  endloop
endfacet
facet normal -0 -0 -1
  outer loop
    vertex 0 10 0
    vertex 10 10 0
    vertex 10 0 0
  endloop
endfacet
facet normal 0 0 -1
  outer loop
    vertex 20 0 0
    vertex 20 4 0
    vertex 30 0 0
  endloop
endfacet
facet normal -0 -0 -1
  outer loop
    vertex 20 4 0
    vertex 30 4 0
    vertex 30 0 0
  endloop
endfacet
facet normal 0 0 -1
  outer loop
    vertex 40 0 0
    vertex 40 10 0
    vertex 50 0 0
  endloop
endfacet
facet normal 0 0 -1
  outer loop
    vertex 40 10 0
    vertex 50 10 0
    vertex 50 0 0
  endloop
endfacet
facet normal 0 0 -1
  outer loop
    vertex 60 0 0
    vertex 60 10 0
    vertex 65 0 0
  endloop
endfacet
facet normal 0 0 -1
  outer loop
    vertex 60 10 0
    vertex 65 10 0
    vertex 65 0 0
  endloop
endfacet
facet normal 0 0 1
  outer loop
    vertex 0 0 10
    vertex 10 0 10
    vertex 0 10 10
  endloop
endfacet
facet normal 0 0 1
  outer loop
    vertex 10 0 10
    vertex 10 10 10
    vertex 0 10 10
  endloop
endfacet
facet normal 0 0 1
  outer loop
    vertex 20 0 5
    vertex 30 0 5
    vertex 20 4 5
  endloop
endfacet
facet normal 0 0 1
  outer loop
    vertex 30 0 5
    vertex 30 4 5
    vertex 20 4 5
  endloop
endfacet
facet normal 0 0 1
  outer loop
    vertex 40 0 0.01
    vertex 50 0 0.01
    vertex 40 10 0.01
  endloop
endfacet
facet normal 0 -0 1
  outer loop
    vertex 40 10 0.01
    vertex 50 0 0.01
    vertex 50 10 0.01
  endloop
endfacet
facet normal 0 0 1
  outer loop
    vertex 60 0 0.01
    vertex 65 0 0.01
    vertex 60 10 0.01
  endloop
endfacet
facet normal 0 -0 1
  outer loop
    vertex 60 10 0.01
    vertex 65 0 0.01
    vertex 65 10 0.01
  endloop
endfacet
facet normal -0 1 0
  outer loop
    vertex 0 10 0
    vertex 0 10 10
    vertex 10 10 10
  endloop
endfacet
facet normal 0 1 0
  outer loop
    vertex 0 10 0
    vertex 10 10 10
    vertex 10 10 0
  endloop
endfacet
facet normal -0 1 0
  outer loop
    vertex 20 4 0
    vertex 20 4 5
    vertex 30 4 5
  endloop
endfacet
facet normal 0 1 0
  outer loop
    vertex 20 4 0
    vertex 30 4 5
    vertex 30 4 0
  endloop
endfacet
facet normal -0 1 0
  outer loop
    vertex 40 10 0
    vertex 40 10 0.01
    vertex 50 10 0.01
  endloop
endfacet
facet normal 0 1 0
  outer loop
    vertex 40 10 0
    vertex 50 10 0.01
    vertex 50 10 0
  endloop
endfacet
facet normal -0 1 0
  outer loop
    vertex 60 10 0
    vertex 60 10 0.01
    vertex 65 10 0.01
  endloop
endfacet
facet normal 0 1 0
  outer loop
    vertex 60 10 0
    vertex 65 10 0.01
    vertex 65 10 0
  endloop
endfacet
facet normal 1 0 0
  outer loop
    vertex 10 0 0
    vertex 10 10 0
    vertex 10 0 10
  endloop
endfacet
facet normal 1 0 0
  outer loop
    vertex 10 10 0
    vertex 10 10 10
    vertex 10 0 10
  endloop
endfacet
facet normal 1 0 0
  outer loop
    vertex 30 0 0
    vertex 30 4 0
    vertex 30 0 5
  endloop
endfacet
facet normal 1 0 0
  outer loop
    vertex 30 4 0
    vertex 30 4 5
    vertex 30 0 5
  endloop
endfacet
facet normal 1 0 0
  outer loop
    vertex 50 0 0
    vertex 50 10 0
    vertex 50 0 0.01
  endloop
endfacet
facet normal 1 0 0
  outer loop
    vertex 50 10 0
    vertex 50 10 0.01
    vertex 50 0 0.01
  endloop
endfacet
facet normal 1 0 0
  outer loop
    vertex 65 0 0
    vertex 65 10 0
    vertex 65 0 0.01
  endloop
endfacet
facet normal 1 0 0
  outer loop
    vertex 65 10 0
    vertex 65 10 0.01
    vertex 65 0 0.01
  endloop
endfacet
endsolid YASCADText
