solid YASCADText
facet normal -1 0 0
  outer loop
    vertex 0 0 3
    vertex 0 0 10
    vertex 0 3 3
  endloop
endfacet
facet normal -1 0 0
  outer loop
    vertex 0 3 3
    vertex 0 0 10
    vertex 0 10 10
  endloop
endfacet
facet normal -1 0 0
  outer loop
    vertex 0 3 0
    vertex 0 3 3
    vertex 0 10 0
  endloop
endfacet
facet normal -1 0 0
  outer loop
    vertex 0 3 3
    vertex 0 10 10
    vertex 0 10 0
  endloop
endfacet
facet normal -1 0 0
  outer loop
    vertex 3 0 0
    vertex 3 0 3
    vertex 3 3 0
  endloop
endfacet
facet normal -1 0 0
  outer loop
    vertex 3 0 3
    vertex 3 3 3
    vertex 3 3 0
  endloop
endfacet
facet normal 0 -1 0
  outer loop
    vertex 0 0 3
    vertex 3 0 3
    vertex 0 0 10
  endloop
endfacet
facet normal 0 -1 0
  outer loop
    vertex 10 0 0
    vertex 0 0 10
    vertex 3 0 3
  endloop
endfacet
facet normal 0 -1 0
  outer loop
    vertex 10 0 0
    vertex 10 0 10
    vertex 0 0 10
  endloop
endfacet
facet normal 0 -1 0
  outer loop
    vertex 0 3 0
    vertex 3 3 0
    vertex 3 3 3
  endloop
endfacet
facet normal 0 -1 0
  outer loop
    vertex 0 3 0
    vertex 3 3 3
    vertex 0 3 3
  endloop
endfacet
facet normal 0 -1 0
  outer loop
    vertex 3 0 0
    vertex 10 0 0
    vertex 3 0 3
  endloop
endfacet
facet normal 0 0 -1
  outer loop
    vertex 0 0 3
    vertex 0 3 3
    vertex 3 0 3
  endloop
endfacet
facet normal 0 0 -1
  outer loop
    vertex 0 3 0
    vertex 0 10 0
    vertex 3 3 0
  endloop
endfacet
facet normal 0 0 -1
  outer loop
    vertex 3 3 0
    vertex 0 10 0
    vertex 10 0 0
  endloop
endfacet
facet normal 0 0 -1
  outer loop
    vertex 10 0 0
    vertex 0 10 0
    vertex 10 10 0
  endloop
endfacet
facet normal 0 0 -1
  outer loop
    vertex 0 3 3
    vertex 3 3 3
    vertex 3 0 3
  endloop
endfacet
facet normal 0 0 -1
  outer loop
    vertex 3 0 0
    vertex 3 3 0
    vertex 10 0 0
  endloop
endfacet
facet normal 0 0 1
  outer loop
    vertex 0 0 10
    vertex 10 0 10
    vertex 0 10 10
  endloop
endfacet
facet normal 0 0 1
  outer loop
    vertex 7 7 10
    vertex 7 10 10
    vertex 0 10 10
  endloop
endfacet
facet normal 0 0 1
  outer loop
    vertex 7 7 10
    vertex 0 10 10
    vertex 10 0 10
  endloop
endfacet
facet normal 0 0 1
  outer loop
    vertex 7 7 7
    vertex 10 7 7
    vertex 7 10 7
  endloop
endfacet
facet normal 0 0 1
  outer loop
    vertex 7 7 10
    vertex 10 0 10
    vertex 10 7 10
  endloop
endfacet
facet normal 0 0 1
  outer loop
    vertex 10 7 7
    vertex 10 10 7
    vertex 7 10 7
  endloop
endfacet
facet normal 0 1 0
  outer loop
    vertex 0 10 0
    vertex 0 10 10
    vertex 7 10 7
  endloop
endfacet
facet normal 0 1 0
  outer loop
    vertex 0 10 0
    vertex 7 10 7
    vertex 10 10 0
  endloop
endfacet
facet normal 0 1 0
  outer loop
    vertex 7 10 7
    vertex 0 10 10
    vertex 7 10 10
  endloop
endfacet
facet normal 0 1 0
  outer loop
    vertex 7 7 7
    vertex 7 7 10
    vertex 10 7 7
  endloop
endfacet
facet normal 0 1 0
  outer loop
    vertex 7 7 10
    vertex 10 7 10
    vertex 10 7 7
  endloop
endfacet
facet normal 0 1 0
  outer loop
    vertex 7 10 7
    vertex 10 10 7
    vertex 10 10 0
  endloop
endfacet
facet normal 1 0 0
  outer loop
    vertex 7 7 7
    vertex 7 10 7
    vertex 7 10 10
  endloop
endfacet
facet normal 1 0 0
  outer loop
    vertex 7 7 7
    vertex 7 10 10
    vertex 7 7 10
  endloop
endfacet
facet normal 1 0 0
  outer loop
    vertex 10 0 0
    vertex 10 10 0
    vertex 10 0 10
  endloop
endfacet
facet normal 1 0 0
  outer loop
    vertex 10 7 7
    vertex 10 7 10
    vertex 10 0 10
  endloop
endfacet
facet normal 1 0 0
  outer loop
    vertex 10 7 7
    vertex 10 0 10
    vertex 10 10 0
  endloop
endfacet
facet normal 1 0 0
  outer loop
    vertex 10 7 7
    vertex 10 10 0
    vertex 10 10 7
  endloop
endfacet
endsolid YASCADText
